<svg width="76" height="70" viewBox="0 0 76 70" fill="none" xmlns="http://www.w3.org/2000/svg">
<path d="M11.928 53L0.56 13.8H5.096L15.064 47.96L13.496 53H11.928ZM30.464 53L19.768 13.8H24.304L33.656 48.184L32.032 53H30.464ZM15.848 42.136L13.888 35.36L19.768 13.8H24.304L16.408 42.136H15.848ZM34.888 42.136L32.872 35.416L39.256 13.8H43.792L35.448 42.136H34.888Z" fill="black"/>
<path d="M46.9 31.98C46.2333 31.98 45.66 31.86 45.18 31.62C44.7 31.3667 44.3267 31.0467 44.06 30.66C43.8067 30.2733 43.68 29.8867 43.68 29.5V28.54C43.68 28.34 43.7 28.1333 43.74 27.92C43.78 27.6933 43.8733 27.4667 44.02 27.24C44.1667 27.0133 44.3933 26.82 44.7 26.66C44.9133 26.5533 45.2133 26.4467 45.6 26.34C46 26.22 46.4267 26.1067 46.88 26C47.3333 25.88 47.7667 25.7533 48.18 25.62C48.5933 25.4867 48.9333 25.3533 49.2 25.22C49.48 25.0733 49.62 24.92 49.62 24.76V24.38C49.62 24.0067 49.5267 23.6933 49.34 23.44C49.1667 23.1733 48.9467 22.9733 48.68 22.84C48.4267 22.6933 48.1533 22.62 47.86 22.62V21.22C48.6067 21.22 49.22 21.3867 49.7 21.72C50.18 22.04 50.5333 22.4467 50.76 22.94C51 23.42 51.12 23.8867 51.12 24.34V29.86C51.12 29.94 51.1467 30.0733 51.2 30.26C51.2667 30.4333 51.42 30.52 51.66 30.52V31.98C51.26 31.98 50.94 31.9133 50.7 31.78C50.46 31.6467 50.2533 31.48 50.08 31.28C49.8267 31.52 49.5 31.7 49.1 31.82C48.7 31.9267 48.2933 31.98 47.88 31.98V30.54C48.1867 30.54 48.4667 30.4933 48.72 30.4C48.9867 30.2933 49.2 30.12 49.36 29.88C49.5333 29.64 49.62 29.3133 49.62 28.9V26.54C49.34 26.6867 48.9867 26.82 48.56 26.94C48.1467 27.06 47.7133 27.1733 47.26 27.28C46.8067 27.3733 46.4 27.4733 46.04 27.58C45.68 27.6733 45.4333 27.7867 45.3 27.92C45.14 28.04 45.06 28.2533 45.06 28.56V29.14C45.0733 29.4733 45.16 29.7467 45.32 29.96C45.48 30.16 45.6933 30.3067 45.96 30.4C46.24 30.4933 46.5533 30.54 46.9 30.54V31.98ZM45.2 24.44L43.82 23.92C43.82 23.4 43.9733 22.94 44.28 22.54C44.5867 22.1267 44.9733 21.8067 45.44 21.58C45.92 21.34 46.4133 21.22 46.92 21.22V22.66C46.6133 22.66 46.3267 22.7333 46.06 22.88C45.8067 23.0133 45.6 23.2133 45.44 23.48C45.28 23.7467 45.2 24.0667 45.2 24.44ZM54.1359 32V23.62H52.8159V22.12H54.1359V20.92C54.1359 20.68 54.1759 20.4 54.2559 20.08C54.3493 19.7467 54.4959 19.42 54.6959 19.1C54.9093 18.7667 55.1959 18.4867 55.5559 18.26C55.9159 18.0333 56.3693 17.92 56.9159 17.92H57.5759L57.2359 19.4H56.8759C56.5426 19.4133 56.2893 19.5067 56.1159 19.68C55.9426 19.84 55.8226 20.0333 55.7559 20.26C55.7026 20.4867 55.6759 20.7067 55.6759 20.92V22.14L57.0159 22.12V23.62H55.6759V32H54.1359ZM60.0842 32V23.54H58.8242V22.14H60.0842V20.96C60.0842 20.7333 60.1242 20.46 60.2042 20.14C60.2842 19.82 60.4242 19.5067 60.6242 19.2C60.8242 18.88 61.0909 18.6133 61.4242 18.4C61.7709 18.1867 62.2109 18.08 62.7442 18.08H65.4842V32H63.9842V19.48H62.7242C62.4176 19.48 62.1776 19.5667 62.0042 19.74C61.8309 19.9 61.7109 20.0933 61.6442 20.32C61.5776 20.5467 61.5442 20.76 61.5442 20.96V22.16L62.8242 22.14V23.54H61.5442V32H60.0842ZM70.7738 32C70.2138 32 69.7204 31.9 69.2938 31.7C68.8804 31.4867 68.5271 31.2267 68.2338 30.92C67.9538 30.6 67.7404 30.2733 67.5938 29.94C67.4604 29.6067 67.3938 29.3133 67.3938 29.06V24.14C67.3938 23.8867 67.4604 23.6 67.5938 23.28C67.7404 22.9467 67.9538 22.6267 68.2338 22.32C68.5271 22.0133 68.8804 21.76 69.2938 21.56C69.7204 21.3467 70.2071 21.24 70.7538 21.24V22.72C70.3938 22.72 70.0738 22.8133 69.7938 23C69.5271 23.1733 69.3138 23.3867 69.1538 23.64C69.0071 23.88 68.9338 24.1 68.9338 24.3V25.72H73.6138V24.32C73.6138 23.9867 73.5204 23.7 73.3338 23.46C73.1471 23.22 72.9071 23.0333 72.6138 22.9C72.3338 22.7533 72.0338 22.68 71.7138 22.68V21.24C72.2471 21.24 72.7671 21.3667 73.2738 21.62C73.7938 21.8733 74.2271 22.22 74.5738 22.66C74.9204 23.0867 75.0938 23.5733 75.0938 24.12V27.2H68.9338V29.06C68.9338 29.2467 69.0071 29.46 69.1538 29.7C69.3138 29.9267 69.5338 30.1267 69.8138 30.3C70.0938 30.4733 70.4138 30.56 70.7738 30.56V32ZM71.7138 32V30.54C72.1138 30.54 72.4538 30.46 72.7338 30.3C73.0271 30.1267 73.2604 29.9267 73.4338 29.7C73.6071 29.46 73.7204 29.2267 73.7738 29L75.1138 29.5C75.0071 29.9267 74.8004 30.3333 74.4938 30.72C74.1871 31.1067 73.8004 31.42 73.3338 31.66C72.8671 31.8867 72.3271 32 71.7138 32Z" fill="black"/>
<path d="M48.18 46C47.62 46 47.1267 45.9 46.7 45.7C46.2867 45.4867 45.9333 45.2267 45.64 44.92C45.36 44.6 45.1467 44.2733 45 43.94C44.8667 43.6067 44.8 43.3133 44.8 43.06V38.14C44.8 37.8867 44.8667 37.6 45 37.28C45.1467 36.9467 45.36 36.6267 45.64 36.32C45.9333 36.0133 46.2867 35.76 46.7 35.56C47.1267 35.3467 47.6133 35.24 48.16 35.24V36.72C47.8 36.72 47.48 36.8133 47.2 37C46.9333 37.1733 46.72 37.3867 46.56 37.64C46.4133 37.88 46.34 38.1 46.34 38.3V39.72H51.02V38.32C51.02 37.9867 50.9267 37.7 50.74 37.46C50.5533 37.22 50.3133 37.0333 50.02 36.9C49.74 36.7533 49.44 36.68 49.12 36.68V35.24C49.6533 35.24 50.1733 35.3667 50.68 35.62C51.2 35.8733 51.6333 36.22 51.98 36.66C52.3267 37.0867 52.5 37.5733 52.5 38.12V41.2H46.34V43.06C46.34 43.2467 46.4133 43.46 46.56 43.7C46.72 43.9267 46.94 44.1267 47.22 44.3C47.5 44.4733 47.82 44.56 48.18 44.56V46ZM49.12 46V44.54C49.52 44.54 49.86 44.46 50.14 44.3C50.4333 44.1267 50.6667 43.9267 50.84 43.7C51.0133 43.46 51.1267 43.2267 51.18 43L52.52 43.5C52.4133 43.9267 52.2067 44.3333 51.9 44.72C51.5933 45.1067 51.2067 45.42 50.74 45.66C50.2733 45.8867 49.7333 46 49.12 46ZM56.6569 46V44.5H58.3569C58.6369 44.5 58.9035 44.4267 59.1569 44.28C59.4235 44.1333 59.6369 43.9467 59.7969 43.72C59.9569 43.48 60.0369 43.2467 60.0369 43.02V38.22C60.0369 37.9933 59.9569 37.7667 59.7969 37.54C59.6502 37.3133 59.4502 37.1267 59.1969 36.98C58.9569 36.82 58.6835 36.74 58.3769 36.74H56.6569V35.24H58.3769C58.8435 35.24 59.2702 35.3333 59.6569 35.52C60.0569 35.7067 60.3969 35.9467 60.6769 36.24C60.9569 36.5333 61.1702 36.8467 61.3169 37.18C61.4769 37.5133 61.5569 37.8333 61.5569 38.14V43.06C61.5569 43.3 61.4902 43.5867 61.3569 43.92C61.2369 44.2533 61.0435 44.58 60.7769 44.9C60.5102 45.2067 60.1702 45.4667 59.7569 45.68C59.3569 45.8933 58.8835 46 58.3369 46H56.6569ZM54.1169 46V31.88H55.6969V46H54.1169Z" fill="black"/>
</svg>
