<svg width="69" height="50" viewBox="0 0 69 50" fill="none" xmlns="http://www.w3.org/2000/svg">
<path d="M10.224 45L0.48 11.4H4.368L12.912 40.68L11.568 45H10.224ZM26.112 45L16.944 11.4H20.832L28.848 40.872L27.456 45H26.112ZM13.584 35.688L11.904 29.88L16.944 11.4H20.832L14.064 35.688H13.584ZM29.904 35.688L28.176 29.928L33.648 11.4H37.536L30.384 35.688H29.904Z" fill="white"/>
<path d="M42.51 29.982C41.91 29.982 41.394 29.874 40.962 29.658C40.53 29.43 40.194 29.142 39.954 28.794C39.726 28.446 39.612 28.098 39.612 27.75V26.886C39.612 26.706 39.63 26.52 39.666 26.328C39.702 26.124 39.786 25.92 39.918 25.716C40.05 25.512 40.254 25.338 40.53 25.194C40.722 25.098 40.992 25.002 41.34 24.906C41.7 24.798 42.084 24.696 42.492 24.6C42.9 24.492 43.29 24.378 43.662 24.258C44.034 24.138 44.34 24.018 44.58 23.898C44.832 23.766 44.958 23.628 44.958 23.484V23.142C44.958 22.806 44.874 22.524 44.706 22.296C44.55 22.056 44.352 21.876 44.112 21.756C43.884 21.624 43.638 21.558 43.374 21.558V20.298C44.046 20.298 44.598 20.448 45.03 20.748C45.462 21.036 45.78 21.402 45.984 21.846C46.2 22.278 46.308 22.698 46.308 23.106V28.074C46.308 28.146 46.332 28.266 46.38 28.434C46.44 28.59 46.578 28.668 46.794 28.668V29.982C46.434 29.982 46.146 29.922 45.93 29.802C45.714 29.682 45.528 29.532 45.372 29.352C45.144 29.568 44.85 29.73 44.49 29.838C44.13 29.934 43.764 29.982 43.392 29.982V28.686C43.668 28.686 43.92 28.644 44.148 28.56C44.388 28.464 44.58 28.308 44.724 28.092C44.88 27.876 44.958 27.582 44.958 27.21V25.086C44.706 25.218 44.388 25.338 44.004 25.446C43.632 25.554 43.242 25.656 42.834 25.752C42.426 25.836 42.06 25.926 41.736 26.022C41.412 26.106 41.19 26.208 41.07 26.328C40.926 26.436 40.854 26.628 40.854 26.904V27.426C40.866 27.726 40.944 27.972 41.088 28.164C41.232 28.344 41.424 28.476 41.664 28.56C41.916 28.644 42.198 28.686 42.51 28.686V29.982ZM40.98 23.196L39.738 22.728C39.738 22.26 39.876 21.846 40.152 21.486C40.428 21.114 40.776 20.826 41.196 20.622C41.628 20.406 42.072 20.298 42.528 20.298V21.594C42.252 21.594 41.994 21.66 41.754 21.792C41.526 21.912 41.34 22.092 41.196 22.332C41.052 22.572 40.98 22.86 40.98 23.196ZM49.0223 30V22.458H47.8343V21.108H49.0223V20.028C49.0223 19.812 49.0583 19.56 49.1303 19.272C49.2143 18.972 49.3463 18.678 49.5263 18.39C49.7183 18.09 49.9763 17.838 50.3003 17.634C50.6243 17.43 51.0323 17.328 51.5243 17.328H52.1183L51.8123 18.66H51.4883C51.1883 18.672 50.9603 18.756 50.8043 18.912C50.6483 19.056 50.5403 19.23 50.4803 19.434C50.4323 19.638 50.4083 19.836 50.4083 20.028V21.126L51.6143 21.108V22.458H50.4083V30H49.0223ZM54.3758 30V22.386H53.2418V21.126H54.3758V20.064C54.3758 19.86 54.4118 19.614 54.4838 19.326C54.5558 19.038 54.6818 18.756 54.8618 18.48C55.0418 18.192 55.2818 17.952 55.5818 17.76C55.8938 17.568 56.2898 17.472 56.7698 17.472H59.2358V30H57.8858V18.732H56.7518C56.4758 18.732 56.2598 18.81 56.1038 18.966C55.9478 19.11 55.8398 19.284 55.7798 19.488C55.7198 19.692 55.6898 19.884 55.6898 20.064V21.144L56.8418 21.126V22.386H55.6898V30H54.3758ZM63.9964 30C63.4924 30 63.0484 29.91 62.6644 29.73C62.2924 29.538 61.9744 29.304 61.7104 29.028C61.4584 28.74 61.2664 28.446 61.1344 28.146C61.0144 27.846 60.9544 27.582 60.9544 27.354V22.926C60.9544 22.698 61.0144 22.44 61.1344 22.152C61.2664 21.852 61.4584 21.564 61.7104 21.288C61.9744 21.012 62.2924 20.784 62.6644 20.604C63.0484 20.412 63.4864 20.316 63.9784 20.316V21.648C63.6544 21.648 63.3664 21.732 63.1144 21.9C62.8744 22.056 62.6824 22.248 62.5384 22.476C62.4064 22.692 62.3404 22.89 62.3404 23.07V24.348H66.5524V23.088C66.5524 22.788 66.4684 22.53 66.3004 22.314C66.1324 22.098 65.9164 21.93 65.6524 21.81C65.4004 21.678 65.1304 21.612 64.8424 21.612V20.316C65.3224 20.316 65.7904 20.43 66.2464 20.658C66.7144 20.886 67.1044 21.198 67.4164 21.594C67.7284 21.978 67.8844 22.416 67.8844 22.908V25.68H62.3404V27.354C62.3404 27.522 62.4064 27.714 62.5384 27.93C62.6824 28.134 62.8804 28.314 63.1324 28.47C63.3844 28.626 63.6724 28.704 63.9964 28.704V30ZM64.8424 30V28.686C65.2024 28.686 65.5084 28.614 65.7604 28.47C66.0244 28.314 66.2344 28.134 66.3904 27.93C66.5464 27.714 66.6484 27.504 66.6964 27.3L67.9024 27.75C67.8064 28.134 67.6204 28.5 67.3444 28.848C67.0684 29.196 66.7204 29.478 66.3004 29.694C65.8804 29.898 65.3944 30 64.8424 30Z" fill="white"/>
<path d="M43.762 42C43.258 42 42.814 41.91 42.43 41.73C42.058 41.538 41.74 41.304 41.476 41.028C41.224 40.74 41.032 40.446 40.9 40.146C40.78 39.846 40.72 39.582 40.72 39.354V34.926C40.72 34.698 40.78 34.44 40.9 34.152C41.032 33.852 41.224 33.564 41.476 33.288C41.74 33.012 42.058 32.784 42.43 32.604C42.814 32.412 43.252 32.316 43.744 32.316V33.648C43.42 33.648 43.132 33.732 42.88 33.9C42.64 34.056 42.448 34.248 42.304 34.476C42.172 34.692 42.106 34.89 42.106 35.07V36.348H46.318V35.088C46.318 34.788 46.234 34.53 46.066 34.314C45.898 34.098 45.682 33.93 45.418 33.81C45.166 33.678 44.896 33.612 44.608 33.612V32.316C45.088 32.316 45.556 32.43 46.012 32.658C46.48 32.886 46.87 33.198 47.182 33.594C47.494 33.978 47.65 34.416 47.65 34.908V37.68H42.106V39.354C42.106 39.522 42.172 39.714 42.304 39.93C42.448 40.134 42.646 40.314 42.898 40.47C43.15 40.626 43.438 40.704 43.762 40.704V42ZM44.608 42V40.686C44.968 40.686 45.274 40.614 45.526 40.47C45.79 40.314 46 40.134 46.156 39.93C46.312 39.714 46.414 39.504 46.462 39.3L47.668 39.75C47.572 40.134 47.386 40.5 47.11 40.848C46.834 41.196 46.486 41.478 46.066 41.694C45.646 41.898 45.16 42 44.608 42ZM51.3912 42V40.65H52.9212C53.1732 40.65 53.4132 40.584 53.6412 40.452C53.8812 40.32 54.0732 40.152 54.2172 39.948C54.3612 39.732 54.4332 39.522 54.4332 39.318V34.998C54.4332 34.794 54.3612 34.59 54.2172 34.386C54.0852 34.182 53.9052 34.014 53.6772 33.882C53.4612 33.738 53.2152 33.666 52.9392 33.666H51.3912V32.316H52.9392C53.3592 32.316 53.7432 32.4 54.0912 32.568C54.4512 32.736 54.7572 32.952 55.0092 33.216C55.2612 33.48 55.4532 33.762 55.5852 34.062C55.7292 34.362 55.8012 34.65 55.8012 34.926V39.354C55.8012 39.57 55.7412 39.828 55.6212 40.128C55.5132 40.428 55.3392 40.722 55.0992 41.01C54.8592 41.286 54.5532 41.52 54.1812 41.712C53.8212 41.904 53.3952 42 52.9032 42H51.3912ZM49.1052 42V29.292H50.5272V42H49.1052Z" fill="white"/>
<rect x="49" y="22" width="2" height="20" fill="white"/>
</svg>
